<?xml version="1.0" encoding="utf-8" standalone="no"?>
<!DOCTYPE svg PUBLIC "-//W3C//DTD SVG 1.1//EN"
  "http://www.w3.org/Graphics/SVG/1.1/DTD/svg11.dtd">
<svg xmlns:xlink="http://www.w3.org/1999/xlink" width="460.8pt" height="345.6pt" viewBox="0 0 460.8 345.6" xmlns="http://www.w3.org/2000/svg" version="1.1">
 <metadata>
  <rdf:RDF xmlns:dc="http://purl.org/dc/elements/1.1/" xmlns:cc="http://creativecommons.org/ns#" xmlns:rdf="http://www.w3.org/1999/02/22-rdf-syntax-ns#">
   <cc:Work>
    <dc:type rdf:resource="http://purl.org/dc/dcmitype/StillImage"/>
    <dc:date>2024-06-09T14:06:06.174139</dc:date>
    <dc:format>image/svg+xml</dc:format>
    <dc:creator>
     <cc:Agent>
      <dc:title>Matplotlib v3.8.1, https://matplotlib.org/</dc:title>
     </cc:Agent>
    </dc:creator>
   </cc:Work>
  </rdf:RDF>
 </metadata>
 <defs>
  <style type="text/css">*{stroke-linejoin: round; stroke-linecap: butt}</style>
 </defs>
 <g id="figure_1">
  <g id="patch_1">
   <path d="M 0 345.6 
L 460.8 345.6 
L 460.8 0 
L 0 0 
z
" style="fill: #ffffff"/>
  </g>
  <g id="axes_1">
   <g id="patch_2">
    <path d="M 57.6 307.584 
L 414.72 307.584 
L 414.72 41.472 
L 57.6 41.472 
z
" style="fill: #ffffff"/>
   </g>
   <g id="matplotlib.axis_1">
    <g id="xtick_1">
     <g id="line2d_1">
      <path d="M 73.832727 307.584 
L 73.832727 41.472 
" clip-path="url(#p9d71e4fe10)" style="fill: none; stroke: #b0b0b0; stroke-width: 0.8; stroke-linecap: square"/>
     </g>
     <g id="line2d_2">
      <defs>
       <path id="m7b8e026f2d" d="M 0 0 
L 0 3.5 
" style="stroke: #000000; stroke-width: 0.8"/>
      </defs>
      <g>
       <use xlink:href="#m7b8e026f2d" x="73.832727" y="307.584" style="stroke: #000000; stroke-width: 0.8"/>
      </g>
     </g>
     <g id="text_1">
      <!-- 0 -->
      <g transform="translate(71.332727 321.459) scale(0.1 -0.1)">
       <defs>
        <path id="SimHei-30" d="M 225 2537 
Q 250 3200 412 3587 
Q 575 3975 875 4225 
Q 1175 4475 1612 4475 
Q 2050 4475 2375 4112 
Q 2700 3750 2800 3200 
Q 2900 2650 2862 1937 
Q 2825 1225 2612 775 
Q 2400 325 1975 150 
Q 1550 -25 1125 187 
Q 700 400 525 750 
Q 350 1100 275 1487 
Q 200 1875 225 2537 
z
M 750 2687 
Q 675 2000 800 1462 
Q 925 925 1212 700 
Q 1500 475 1800 612 
Q 2100 750 2237 1162 
Q 2375 1575 2375 2062 
Q 2375 2550 2337 2950 
Q 2300 3350 2112 3675 
Q 1925 4000 1612 4012 
Q 1300 4025 1062 3700 
Q 825 3375 750 2687 
z
" transform="scale(0.015625)"/>
       </defs>
       <use xlink:href="#SimHei-30"/>
      </g>
     </g>
    </g>
    <g id="xtick_2">
     <g id="line2d_3">
      <path d="M 140.088757 307.584 
L 140.088757 41.472 
" clip-path="url(#p9d71e4fe10)" style="fill: none; stroke: #b0b0b0; stroke-width: 0.8; stroke-linecap: square"/>
     </g>
     <g id="line2d_4">
      <g>
       <use xlink:href="#m7b8e026f2d" x="140.088757" y="307.584" style="stroke: #000000; stroke-width: 0.8"/>
      </g>
     </g>
     <g id="text_2">
      <!-- 2 -->
      <g transform="translate(137.588757 321.459) scale(0.1 -0.1)">
       <defs>
        <path id="SimHei-32" d="M 300 250 
Q 325 625 650 925 
Q 975 1225 1475 1862 
Q 1975 2500 2125 2850 
Q 2275 3200 2237 3450 
Q 2200 3700 2000 3862 
Q 1800 4025 1537 4000 
Q 1275 3975 1037 3800 
Q 800 3625 675 3275 
L 200 3350 
Q 400 3925 712 4187 
Q 1025 4450 1450 4475 
Q 1700 4500 1900 4462 
Q 2100 4425 2312 4287 
Q 2525 4150 2662 3875 
Q 2800 3600 2762 3212 
Q 2725 2825 2375 2287 
Q 2025 1750 1025 600 
L 2825 600 
L 2825 150 
L 300 150 
L 300 250 
z
" transform="scale(0.015625)"/>
       </defs>
       <use xlink:href="#SimHei-32"/>
      </g>
     </g>
    </g>
    <g id="xtick_3">
     <g id="line2d_5">
      <path d="M 206.344787 307.584 
L 206.344787 41.472 
" clip-path="url(#p9d71e4fe10)" style="fill: none; stroke: #b0b0b0; stroke-width: 0.8; stroke-linecap: square"/>
     </g>
     <g id="line2d_6">
      <g>
       <use xlink:href="#m7b8e026f2d" x="206.344787" y="307.584" style="stroke: #000000; stroke-width: 0.8"/>
      </g>
     </g>
     <g id="text_3">
      <!-- 4 -->
      <g transform="translate(203.844787 321.459) scale(0.1 -0.1)">
       <defs>
        <path id="SimHei-34" d="M 2000 1100 
L 75 1100 
L 75 1525 
L 2100 4450 
L 2475 4450 
L 2475 1525 
L 3075 1525 
L 3075 1100 
L 2475 1100 
L 2475 150 
L 2000 150 
L 2000 1100 
z
M 2000 1525 
L 2000 3500 
L 600 1525 
L 2000 1525 
z
" transform="scale(0.015625)"/>
       </defs>
       <use xlink:href="#SimHei-34"/>
      </g>
     </g>
    </g>
    <g id="xtick_4">
     <g id="line2d_7">
      <path d="M 272.600816 307.584 
L 272.600816 41.472 
" clip-path="url(#p9d71e4fe10)" style="fill: none; stroke: #b0b0b0; stroke-width: 0.8; stroke-linecap: square"/>
     </g>
     <g id="line2d_8">
      <g>
       <use xlink:href="#m7b8e026f2d" x="272.600816" y="307.584" style="stroke: #000000; stroke-width: 0.8"/>
      </g>
     </g>
     <g id="text_4">
      <!-- 6 -->
      <g transform="translate(270.100816 321.459) scale(0.1 -0.1)">
       <defs>
        <path id="SimHei-36" d="M 250 1612 
Q 275 1975 387 2225 
Q 500 2475 725 2850 
L 1750 4450 
L 2325 4450 
L 1275 2800 
Q 1950 2975 2350 2750 
Q 2750 2525 2887 2237 
Q 3025 1950 3037 1612 
Q 3050 1275 2937 950 
Q 2825 625 2537 362 
Q 2250 100 1737 75 
Q 1225 50 862 262 
Q 500 475 362 862 
Q 225 1250 250 1612 
z
M 1025 787 
Q 1250 550 1625 525 
Q 2000 500 2250 775 
Q 2500 1050 2500 1575 
Q 2500 2100 2187 2300 
Q 1875 2500 1487 2450 
Q 1100 2400 925 2075 
Q 750 1750 775 1387 
Q 800 1025 1025 787 
z
" transform="scale(0.015625)"/>
       </defs>
       <use xlink:href="#SimHei-36"/>
      </g>
     </g>
    </g>
    <g id="xtick_5">
     <g id="line2d_9">
      <path d="M 338.856846 307.584 
L 338.856846 41.472 
" clip-path="url(#p9d71e4fe10)" style="fill: none; stroke: #b0b0b0; stroke-width: 0.8; stroke-linecap: square"/>
     </g>
     <g id="line2d_10">
      <g>
       <use xlink:href="#m7b8e026f2d" x="338.856846" y="307.584" style="stroke: #000000; stroke-width: 0.8"/>
      </g>
     </g>
     <g id="text_5">
      <!-- 8 -->
      <g transform="translate(336.356846 321.459) scale(0.1 -0.1)">
       <defs>
        <path id="SimHei-38" d="M 175 1375 
Q 175 1675 325 1962 
Q 475 2250 825 2425 
Q 525 2600 425 2812 
Q 325 3025 312 3300 
Q 300 3575 387 3775 
Q 475 3975 650 4150 
Q 825 4325 1037 4387 
Q 1250 4450 1500 4450 
Q 1750 4450 1950 4400 
Q 2150 4350 2375 4187 
Q 2600 4025 2700 3725 
Q 2800 3425 2687 3025 
Q 2575 2625 2100 2400 
Q 2525 2275 2700 2012 
Q 2875 1750 2875 1375 
Q 2875 1000 2762 775 
Q 2650 550 2512 400 
Q 2375 250 2137 162 
Q 1900 75 1537 75 
Q 1175 75 912 162 
Q 650 250 475 425 
Q 300 600 237 837 
Q 175 1075 175 1375 
z
M 687 1400 
Q 675 1100 787 875 
Q 900 650 1200 587 
Q 1500 525 1825 600 
Q 2150 675 2275 950 
Q 2400 1225 2362 1500 
Q 2325 1775 2050 1962 
Q 1775 2150 1450 2125 
Q 1125 2100 912 1900 
Q 700 1700 687 1400 
z
M 775 3350 
Q 775 3100 950 2875 
Q 1125 2650 1500 2650 
Q 1875 2650 2062 2875 
Q 2250 3100 2237 3412 
Q 2225 3725 2012 3875 
Q 1800 4025 1437 4000 
Q 1075 3975 925 3787 
Q 775 3600 775 3350 
z
" transform="scale(0.015625)"/>
       </defs>
       <use xlink:href="#SimHei-38"/>
      </g>
     </g>
    </g>
    <g id="xtick_6">
     <g id="line2d_11">
      <path d="M 405.112876 307.584 
L 405.112876 41.472 
" clip-path="url(#p9d71e4fe10)" style="fill: none; stroke: #b0b0b0; stroke-width: 0.8; stroke-linecap: square"/>
     </g>
     <g id="line2d_12">
      <g>
       <use xlink:href="#m7b8e026f2d" x="405.112876" y="307.584" style="stroke: #000000; stroke-width: 0.8"/>
      </g>
     </g>
     <g id="text_6">
      <!-- 10 -->
      <g transform="translate(400.112876 321.459) scale(0.1 -0.1)">
       <defs>
        <path id="SimHei-31" d="M 1400 3600 
Q 1075 3275 575 2975 
L 575 3450 
Q 1200 3875 1600 4450 
L 1900 4450 
L 1900 150 
L 1400 150 
L 1400 3600 
z
" transform="scale(0.015625)"/>
       </defs>
       <use xlink:href="#SimHei-31"/>
       <use xlink:href="#SimHei-30" x="50"/>
      </g>
     </g>
    </g>
    <g id="text_7">
     <!-- 新-二甲双胍摄入量（g/kg） -->
     <g transform="translate(173.66 334.951187) scale(0.1 -0.1)">
      <defs>
       <path id="SimHei-65b0" d="M 6125 4650 
Q 5750 4650 4275 4500 
L 4275 3225 
L 5575 3225 
Q 5850 3225 6150 3250 
L 6150 2775 
Q 5800 2800 5550 2800 
L 5550 225 
Q 5550 -200 5575 -675 
L 5050 -675 
Q 5075 -200 5075 200 
L 5075 2800 
L 4275 2800 
Q 4275 2175 4225 1600 
Q 4175 1025 4012 462 
Q 3850 -100 3525 -700 
Q 3275 -550 3025 -450 
Q 3425 125 3587 762 
Q 3750 1400 3775 1875 
Q 3800 2350 3800 3300 
Q 3800 4275 3775 4850 
Q 4900 4900 5800 5200 
Q 6000 4800 6125 4650 
z
M 2975 3825 
Q 2800 3725 2575 3050 
Q 3000 3050 3450 3075 
L 3450 2575 
Q 3025 2600 2175 2600 
L 2175 1975 
Q 2950 1975 3400 2000 
L 3400 1500 
Q 2950 1525 2175 1525 
L 2175 0 
Q 2175 -375 1937 -500 
Q 1700 -625 1325 -625 
Q 1225 -325 1075 -75 
Q 1425 -100 1562 -75 
Q 1700 -50 1700 150 
L 1700 1525 
Q 900 1525 450 1500 
L 450 2000 
Q 925 1975 1700 1975 
L 1700 2600 
Q 775 2600 325 2575 
L 325 3075 
Q 775 3050 1175 3050 
L 2125 3050 
Q 2325 3650 2425 3975 
Q 2625 3925 2975 3825 
z
M 2125 5275 
Q 2250 4750 2275 4550 
Q 2850 4550 3350 4575 
L 3350 4075 
Q 2825 4100 2500 4100 
L 1300 4100 
Q 875 4100 475 4075 
L 475 4575 
Q 900 4550 1300 4550 
L 1750 4550 
Q 1700 4825 1600 5125 
Q 1850 5200 2125 5275 
z
M 1525 1050 
Q 1375 875 1175 612 
Q 975 350 600 -125 
Q 425 50 225 175 
Q 750 750 1050 1375 
Q 1300 1175 1525 1050 
z
M 2725 1300 
Q 3025 900 3275 475 
Q 3025 350 2875 150 
Q 2675 600 2350 1025 
Q 2525 1175 2725 1300 
z
M 1275 3950 
Q 1450 3600 1575 3250 
Q 1350 3200 1150 3100 
Q 1025 3475 875 3775 
Q 1050 3875 1275 3950 
z
" transform="scale(0.015625)"/>
       <path id="SimHei-2d" d="M 2975 2125 
L 125 2125 
L 125 2525 
L 2975 2525 
L 2975 2125 
z
" transform="scale(0.015625)"/>
       <path id="SimHei-4e8c" d="M 5050 625 
Q 5650 625 6025 675 
L 6025 50 
Q 5625 75 5050 75 
L 1425 75 
Q 775 75 350 50 
L 350 650 
Q 800 625 1400 625 
L 5050 625 
z
M 4350 4150 
Q 4900 4175 5350 4200 
L 5350 3575 
Q 4900 3600 4375 3600 
L 2050 3600 
Q 1450 3600 1000 3575 
L 1000 4175 
Q 1450 4150 2025 4150 
L 4350 4150 
z
" transform="scale(0.015625)"/>
       <path id="SimHei-7532" d="M 5650 4950 
Q 5625 4500 5625 4075 
L 5625 2025 
Q 5625 1550 5650 1025 
L 5125 1025 
L 5125 1375 
L 3475 1375 
L 3475 375 
Q 3475 -25 3500 -625 
L 2975 -625 
Q 3000 -75 3000 375 
L 3000 1375 
L 1275 1375 
L 1275 1025 
L 750 1025 
Q 775 1575 775 2075 
L 775 4125 
Q 775 4550 750 4950 
L 5650 4950 
z
M 3000 1800 
L 3000 2950 
L 1275 2950 
L 1275 1800 
L 3000 1800 
z
M 3000 3375 
L 3000 4525 
L 1275 4525 
L 1275 3375 
L 3000 3375 
z
M 5125 1800 
L 5125 2950 
L 3475 2950 
L 3475 1800 
L 5125 1800 
z
M 5125 3375 
L 5125 4525 
L 3475 4525 
L 3475 3375 
L 5125 3375 
z
" transform="scale(0.015625)"/>
       <path id="SimHei-53cc" d="M 5675 4775 
Q 5500 3400 5250 2525 
Q 5000 1650 4625 1075 
Q 4925 675 5337 362 
Q 5750 50 6200 -125 
Q 5900 -250 5700 -550 
Q 5425 -375 5037 -62 
Q 4650 250 4300 700 
Q 4050 375 3637 25 
Q 3225 -325 2650 -675 
Q 2475 -425 2225 -325 
Q 2875 0 3337 412 
Q 3800 825 4000 1125 
Q 3650 2000 3525 2587 
Q 3400 3175 3300 4325 
L 3050 4325 
L 3050 4800 
Q 3525 4775 4025 4775 
L 5675 4775 
z
M 2875 4725 
Q 2800 4000 2700 3412 
Q 2600 2825 2350 2100 
Q 3075 1225 3300 850 
Q 3100 725 2875 525 
Q 2525 1075 2125 1575 
Q 1875 1050 1587 612 
Q 1300 175 800 -325 
Q 650 -125 350 -25 
Q 850 400 1187 862 
Q 1525 1325 1750 1925 
Q 1400 2400 550 3275 
Q 750 3450 900 3625 
Q 1575 2925 1950 2450 
Q 2075 2750 2175 3225 
Q 2275 3700 2300 4275 
L 1400 4275 
Q 850 4275 475 4250 
L 475 4750 
Q 875 4725 1375 4725 
L 2875 4725 
z
M 3775 4325 
Q 3850 3325 3950 2825 
Q 4050 2325 4350 1600 
Q 4625 2125 4825 2825 
Q 5025 3525 5100 4325 
L 3775 4325 
z
" transform="scale(0.015625)"/>
       <path id="SimHei-80cd" d="M 4900 -400 
Q 4825 -175 4750 75 
Q 4450 -25 4250 -150 
Q 4050 -275 3850 -425 
Q 3725 -225 3550 50 
Q 3750 150 3800 262 
Q 3850 375 3875 1400 
Q 3900 2425 3900 4350 
Q 3725 4350 3400 4325 
Q 3400 2950 3387 1700 
Q 3375 450 3000 -700 
Q 2775 -500 2500 -375 
Q 2950 275 2962 2212 
Q 2975 4150 2950 4700 
Q 3325 4700 3712 4737 
Q 4100 4775 4587 4862 
Q 5075 4950 5350 5125 
Q 5550 4800 5750 4575 
Q 5475 4550 5200 4500 
Q 5200 3900 5225 3212 
Q 5250 2525 5350 1912 
Q 5450 1300 5650 812 
Q 5850 325 6175 25 
Q 5975 -150 5800 -500 
Q 5550 -100 5362 300 
Q 5175 700 5037 1262 
Q 4900 1825 4850 2600 
Q 4800 3375 4800 4450 
Q 4600 4425 4325 4400 
Q 4300 3125 4300 2225 
Q 4300 1350 4250 300 
Q 4450 350 4650 425 
Q 4625 600 4575 750 
Q 4725 800 4975 875 
Q 5050 650 5137 350 
Q 5225 50 5300 -250 
Q 5075 -300 4900 -400 
z
M 1425 125 
Q 1750 100 1925 125 
Q 2100 150 2100 425 
L 2100 1675 
L 1200 1675 
Q 1150 1050 1075 712 
Q 1000 375 900 75 
Q 800 -225 675 -475 
Q 400 -275 200 -200 
Q 400 100 550 612 
Q 700 1125 750 1950 
L 750 4100 
Q 750 4500 725 4900 
L 2600 4900 
Q 2575 4375 2575 3900 
L 2575 425 
Q 2575 -450 1575 -475 
Q 1550 -225 1425 125 
z
M 2100 2075 
L 2100 3075 
L 1225 3075 
L 1225 2075 
L 2100 2075 
z
M 2100 3500 
L 2100 4475 
L 1225 4475 
L 1225 3500 
L 2100 3500 
z
" transform="scale(0.015625)"/>
       <path id="SimHei-6444" d="M 2300 2650 
L 2875 2675 
L 2875 4575 
Q 2575 4575 2300 4550 
L 2300 4975 
Q 2750 4950 3150 4950 
L 5175 4950 
Q 5525 4950 5925 4975 
L 5925 4550 
Q 5575 4575 5325 4575 
L 5325 2750 
L 6025 2775 
L 6025 2425 
L 5325 2400 
L 5325 2050 
L 4875 2050 
L 4875 2375 
Q 4200 2375 3600 2337 
Q 3000 2300 2350 2225 
L 2300 2650 
z
M 1100 4000 
Q 1100 4825 1075 5175 
L 1600 5175 
Q 1550 4850 1550 4000 
Q 1875 4000 2225 4025 
L 2225 3575 
Q 1875 3600 1550 3600 
L 1550 2575 
Q 1775 2675 2050 2825 
Q 2050 2625 2075 2350 
Q 1800 2250 1550 2125 
L 1550 75 
Q 1600 -275 1325 -387 
Q 1050 -500 575 -550 
Q 625 -325 400 25 
Q 800 -25 950 0 
Q 1100 25 1100 225 
L 1100 1950 
Q 800 1850 475 1625 
Q 425 1850 275 2175 
Q 575 2225 1100 2425 
L 1100 3600 
Q 625 3600 350 3575 
L 350 4025 
Q 650 4000 1100 4000 
z
M 3875 1925 
Q 4325 1900 4700 1900 
L 5850 1900 
Q 5675 875 5200 300 
Q 5550 -75 6175 -200 
Q 5950 -350 5800 -600 
Q 5325 -400 4875 25 
Q 4275 -475 3900 -650 
Q 3800 -500 3475 -325 
Q 4100 -125 4575 300 
Q 4275 650 4025 1500 
L 3875 1500 
L 3875 1925 
z
M 3775 1900 
Q 3675 1175 3450 675 
Q 3625 525 3925 350 
Q 3825 250 3625 0 
Q 3450 125 3250 275 
Q 2850 -275 2300 -625 
Q 2225 -450 1925 -275 
Q 2475 -50 2900 500 
Q 2475 775 2100 975 
Q 2250 1100 2325 1325 
Q 2575 1200 3100 900 
Q 3200 1050 3250 1500 
Q 2500 1500 2100 1475 
L 2100 1925 
Q 2475 1900 2775 1900 
L 3775 1900 
z
M 4875 4175 
L 4875 4575 
L 3300 4575 
L 3300 4175 
L 4875 4175 
z
M 4875 3425 
L 4875 3825 
L 3300 3825 
L 3300 3425 
L 4875 3425 
z
M 4875 2725 
L 4875 3050 
L 3300 3050 
L 3300 2675 
L 4875 2725 
z
M 4450 1500 
Q 4600 925 4900 575 
Q 5225 975 5325 1500 
L 4450 1500 
z
" transform="scale(0.015625)"/>
       <path id="SimHei-5165" d="M 5650 -375 
Q 5050 25 4500 650 
Q 3950 1275 3275 3050 
Q 2575 975 675 -475 
Q 575 -225 225 50 
Q 1850 825 2975 3525 
Q 2900 3725 2525 4125 
Q 2150 4525 1750 4675 
Q 2025 4900 2175 5125 
Q 2800 4650 3175 4225 
Q 3550 3800 4125 2375 
Q 4700 950 6125 250 
Q 5775 0 5650 -375 
z
" transform="scale(0.015625)"/>
       <path id="SimHei-91cf" d="M 5250 2500 
Q 5225 2200 5225 1700 
Q 5225 1225 5250 950 
L 3425 950 
L 3425 625 
L 4575 625 
Q 5000 625 5375 650 
L 5375 275 
Q 5025 300 4575 300 
L 3425 300 
L 3425 -75 
L 5125 -75 
Q 5525 -75 5925 -50 
L 5925 -425 
Q 5525 -400 5125 -400 
L 1275 -400 
Q 900 -400 475 -425 
L 475 -50 
Q 925 -50 1275 -75 
L 2975 -75 
L 2975 300 
L 1725 300 
Q 1350 300 975 250 
L 975 650 
Q 1375 625 1725 625 
L 2975 625 
L 2975 950 
L 1150 950 
Q 1175 1375 1175 1775 
Q 1175 2175 1150 2500 
L 5250 2500 
z
M 5200 4950 
Q 5175 4575 5175 4250 
Q 5175 3925 5200 3400 
L 1200 3400 
Q 1225 3925 1225 4250 
Q 1225 4575 1200 4950 
L 5200 4950 
z
M 4900 3100 
Q 5500 3125 6000 3150 
L 6000 2750 
Q 5500 2775 4925 2775 
L 1650 2775 
Q 975 2775 325 2750 
L 325 3150 
Q 975 3125 1650 3100 
L 4900 3100 
z
M 4725 3700 
L 4725 4025 
L 1675 4025 
L 1675 3700 
L 4725 3700 
z
M 4725 4350 
L 4725 4650 
L 1675 4650 
L 1675 4350 
L 4725 4350 
z
M 4750 1875 
L 4750 2175 
L 3425 2175 
L 3425 1875 
L 4750 1875 
z
M 2975 1875 
L 2975 2175 
L 1650 2175 
L 1650 1875 
L 2975 1875 
z
M 2975 1275 
L 2975 1550 
L 1650 1550 
L 1650 1275 
L 2975 1275 
z
M 4750 1275 
L 4750 1550 
L 3425 1550 
L 3425 1275 
L 4750 1275 
z
" transform="scale(0.015625)"/>
       <path id="SimHei-ff08" d="M 5425 5100 
L 5700 4775 
Q 4275 3725 4325 2350 
Q 4350 1025 5675 50 
L 5400 -275 
Q 3875 825 3925 2500 
Q 3925 3875 5425 5100 
z
" transform="scale(0.015625)"/>
       <path id="SimHei-67" d="M 2975 2500 
Q 2800 2550 2637 2562 
Q 2475 2575 2300 2525 
Q 2375 2450 2425 2337 
Q 2475 2225 2475 2000 
Q 2475 1575 2187 1300 
Q 1900 1025 1475 1025 
Q 1375 1025 1212 1062 
Q 1050 1100 950 1150 
Q 875 1100 850 1050 
Q 825 1000 825 925 
Q 825 800 1000 737 
Q 1175 675 1625 675 
Q 2350 675 2612 475 
Q 2875 275 2875 -25 
Q 2875 -425 2487 -612 
Q 2100 -800 1575 -800 
Q 900 -800 575 -625 
Q 250 -450 250 -150 
Q 250 0 375 150 
Q 500 300 700 400 
Q 550 475 462 587 
Q 375 700 375 875 
Q 375 1025 487 1137 
Q 600 1250 750 1325 
Q 625 1450 550 1625 
Q 475 1800 475 2000 
Q 475 2425 762 2700 
Q 1050 2975 1475 2975 
Q 1700 2975 1862 2912 
Q 2025 2850 2150 2725 
Q 2350 2875 2550 2937 
Q 2750 3000 2975 2975 
L 2975 2500 
z
M 1975 2000 
Q 1975 2250 1850 2400 
Q 1725 2550 1475 2550 
Q 1225 2550 1100 2400 
Q 975 2250 975 2000 
Q 975 1750 1100 1600 
Q 1225 1450 1475 1450 
Q 1725 1450 1850 1600 
Q 1975 1750 1975 2000 
z
M 2400 -75 
Q 2400 25 2287 125 
Q 2175 225 1725 225 
Q 1625 225 1450 237 
Q 1275 250 1050 275 
Q 850 200 775 100 
Q 700 0 700 -100 
Q 700 -250 900 -350 
Q 1100 -450 1600 -450 
Q 2025 -450 2212 -337 
Q 2400 -225 2400 -75 
z
" transform="scale(0.015625)"/>
       <path id="SimHei-2f" d="M 3000 4550 
L 350 -175 
L 100 -25 
L 2750 4700 
L 3000 4550 
z
" transform="scale(0.015625)"/>
       <path id="SimHei-6b" d="M 2925 125 
L 2350 125 
L 1450 1650 
L 875 1100 
L 875 125 
L 375 125 
L 375 4400 
L 875 4400 
L 875 1675 
L 2125 2925 
L 2750 2925 
L 1775 1975 
L 2925 125 
z
" transform="scale(0.015625)"/>
       <path id="SimHei-ff09" d="M 1000 5100 
Q 2500 3875 2500 2500 
Q 2550 825 1025 -275 
L 750 50 
Q 2075 1025 2100 2350 
Q 2150 3725 725 4775 
L 1000 5100 
z
" transform="scale(0.015625)"/>
      </defs>
      <use xlink:href="#SimHei-65b0"/>
      <use xlink:href="#SimHei-2d" x="100"/>
      <use xlink:href="#SimHei-4e8c" x="150"/>
      <use xlink:href="#SimHei-7532" x="250"/>
      <use xlink:href="#SimHei-53cc" x="350"/>
      <use xlink:href="#SimHei-80cd" x="450"/>
      <use xlink:href="#SimHei-6444" x="550"/>
      <use xlink:href="#SimHei-5165" x="650"/>
      <use xlink:href="#SimHei-91cf" x="750"/>
      <use xlink:href="#SimHei-ff08" x="850"/>
      <use xlink:href="#SimHei-67" x="950"/>
      <use xlink:href="#SimHei-2f" x="1000"/>
      <use xlink:href="#SimHei-6b" x="1050"/>
      <use xlink:href="#SimHei-67" x="1100"/>
      <use xlink:href="#SimHei-ff09" x="1150"/>
     </g>
    </g>
   </g>
   <g id="matplotlib.axis_2">
    <g id="ytick_1">
     <g id="line2d_13">
      <path d="M 57.6 304.860782 
L 414.72 304.860782 
" clip-path="url(#p9d71e4fe10)" style="fill: none; stroke: #b0b0b0; stroke-width: 0.8; stroke-linecap: square"/>
     </g>
     <g id="line2d_14">
      <defs>
       <path id="m4762d62d08" d="M 0 0 
L -3.5 0 
" style="stroke: #000000; stroke-width: 0.8"/>
      </defs>
      <g>
       <use xlink:href="#m4762d62d08" x="57.6" y="304.860782" style="stroke: #000000; stroke-width: 0.8"/>
      </g>
     </g>
     <g id="text_8">
      <!-- 0.47 -->
      <g transform="translate(30.6 308.298282) scale(0.1 -0.1)">
       <defs>
        <path id="SimHei-2e" d="M 1075 125 
L 500 125 
L 500 675 
L 1075 675 
L 1075 125 
z
" transform="scale(0.015625)"/>
        <path id="SimHei-37" d="M 850 150 
Q 1300 2050 2425 3925 
L 275 3925 
L 275 4375 
L 2950 4375 
L 2950 3950 
Q 1775 2050 1400 150 
L 850 150 
z
" transform="scale(0.015625)"/>
       </defs>
       <use xlink:href="#SimHei-30"/>
       <use xlink:href="#SimHei-2e" x="50"/>
       <use xlink:href="#SimHei-34" x="100"/>
       <use xlink:href="#SimHei-37" x="150"/>
      </g>
     </g>
    </g>
    <g id="ytick_2">
     <g id="line2d_15">
      <path d="M 57.6 273.710289 
L 414.72 273.710289 
" clip-path="url(#p9d71e4fe10)" style="fill: none; stroke: #b0b0b0; stroke-width: 0.8; stroke-linecap: square"/>
     </g>
     <g id="line2d_16">
      <g>
       <use xlink:href="#m4762d62d08" x="57.6" y="273.710289" style="stroke: #000000; stroke-width: 0.8"/>
      </g>
     </g>
     <g id="text_9">
      <!-- 0.48 -->
      <g transform="translate(30.6 277.147789) scale(0.1 -0.1)">
       <use xlink:href="#SimHei-30"/>
       <use xlink:href="#SimHei-2e" x="50"/>
       <use xlink:href="#SimHei-34" x="100"/>
       <use xlink:href="#SimHei-38" x="150"/>
      </g>
     </g>
    </g>
    <g id="ytick_3">
     <g id="line2d_17">
      <path d="M 57.6 242.559796 
L 414.72 242.559796 
" clip-path="url(#p9d71e4fe10)" style="fill: none; stroke: #b0b0b0; stroke-width: 0.8; stroke-linecap: square"/>
     </g>
     <g id="line2d_18">
      <g>
       <use xlink:href="#m4762d62d08" x="57.6" y="242.559796" style="stroke: #000000; stroke-width: 0.8"/>
      </g>
     </g>
     <g id="text_10">
      <!-- 0.49 -->
      <g transform="translate(30.6 245.997296) scale(0.1 -0.1)">
       <defs>
        <path id="SimHei-39" d="M 800 75 
Q 1350 1000 1700 1750 
Q 1075 1650 662 1912 
Q 250 2175 162 2625 
Q 75 3075 175 3437 
Q 275 3800 487 4037 
Q 700 4275 1000 4375 
Q 1300 4475 1537 4475 
Q 1775 4475 2025 4375 
Q 2275 4275 2475 4075 
Q 2675 3875 2750 3662 
Q 2825 3450 2825 3112 
Q 2825 2775 2575 2250 
Q 2325 1725 1350 75 
L 800 75 
z
M 662 2875 
Q 700 2550 937 2337 
Q 1175 2125 1450 2150 
Q 1725 2175 1887 2300 
Q 2050 2425 2200 2725 
Q 2300 3100 2250 3362 
Q 2200 3625 1987 3800 
Q 1775 3975 1525 3975 
Q 1375 4000 1137 3900 
Q 900 3800 762 3500 
Q 625 3200 662 2875 
z
" transform="scale(0.015625)"/>
       </defs>
       <use xlink:href="#SimHei-30"/>
       <use xlink:href="#SimHei-2e" x="50"/>
       <use xlink:href="#SimHei-34" x="100"/>
       <use xlink:href="#SimHei-39" x="150"/>
      </g>
     </g>
    </g>
    <g id="ytick_4">
     <g id="line2d_19">
      <path d="M 57.6 211.409304 
L 414.72 211.409304 
" clip-path="url(#p9d71e4fe10)" style="fill: none; stroke: #b0b0b0; stroke-width: 0.8; stroke-linecap: square"/>
     </g>
     <g id="line2d_20">
      <g>
       <use xlink:href="#m4762d62d08" x="57.6" y="211.409304" style="stroke: #000000; stroke-width: 0.8"/>
      </g>
     </g>
     <g id="text_11">
      <!-- 0.50 -->
      <g transform="translate(30.6 214.846804) scale(0.1 -0.1)">
       <defs>
        <path id="SimHei-35" d="M 550 1325 
Q 725 650 1150 575 
Q 1575 500 1837 662 
Q 2100 825 2212 1087 
Q 2325 1350 2312 1675 
Q 2300 2000 2137 2225 
Q 1975 2450 1725 2525 
Q 1475 2600 1162 2525 
Q 850 2450 650 2175 
L 225 2225 
Q 275 2375 700 4375 
L 2675 4375 
L 2675 3925 
L 1075 3925 
Q 950 3250 825 2850 
Q 1200 3025 1525 3012 
Q 1850 3000 2150 2862 
Q 2450 2725 2587 2487 
Q 2725 2250 2787 2012 
Q 2850 1775 2837 1500 
Q 2825 1225 2725 937 
Q 2625 650 2425 462 
Q 2225 275 1937 162 
Q 1650 50 1275 75 
Q 900 100 562 350 
Q 225 600 100 1200 
L 550 1325 
z
" transform="scale(0.015625)"/>
       </defs>
       <use xlink:href="#SimHei-30"/>
       <use xlink:href="#SimHei-2e" x="50"/>
       <use xlink:href="#SimHei-35" x="100"/>
       <use xlink:href="#SimHei-30" x="150"/>
      </g>
     </g>
    </g>
    <g id="ytick_5">
     <g id="line2d_21">
      <path d="M 57.6 180.258811 
L 414.72 180.258811 
" clip-path="url(#p9d71e4fe10)" style="fill: none; stroke: #b0b0b0; stroke-width: 0.8; stroke-linecap: square"/>
     </g>
     <g id="line2d_22">
      <g>
       <use xlink:href="#m4762d62d08" x="57.6" y="180.258811" style="stroke: #000000; stroke-width: 0.8"/>
      </g>
     </g>
     <g id="text_12">
      <!-- 0.51 -->
      <g transform="translate(30.6 183.696311) scale(0.1 -0.1)">
       <use xlink:href="#SimHei-30"/>
       <use xlink:href="#SimHei-2e" x="50"/>
       <use xlink:href="#SimHei-35" x="100"/>
       <use xlink:href="#SimHei-31" x="150"/>
      </g>
     </g>
    </g>
    <g id="ytick_6">
     <g id="line2d_23">
      <path d="M 57.6 149.108318 
L 414.72 149.108318 
" clip-path="url(#p9d71e4fe10)" style="fill: none; stroke: #b0b0b0; stroke-width: 0.8; stroke-linecap: square"/>
     </g>
     <g id="line2d_24">
      <g>
       <use xlink:href="#m4762d62d08" x="57.6" y="149.108318" style="stroke: #000000; stroke-width: 0.8"/>
      </g>
     </g>
     <g id="text_13">
      <!-- 0.52 -->
      <g transform="translate(30.6 152.545818) scale(0.1 -0.1)">
       <use xlink:href="#SimHei-30"/>
       <use xlink:href="#SimHei-2e" x="50"/>
       <use xlink:href="#SimHei-35" x="100"/>
       <use xlink:href="#SimHei-32" x="150"/>
      </g>
     </g>
    </g>
    <g id="ytick_7">
     <g id="line2d_25">
      <path d="M 57.6 117.957826 
L 414.72 117.957826 
" clip-path="url(#p9d71e4fe10)" style="fill: none; stroke: #b0b0b0; stroke-width: 0.8; stroke-linecap: square"/>
     </g>
     <g id="line2d_26">
      <g>
       <use xlink:href="#m4762d62d08" x="57.6" y="117.957826" style="stroke: #000000; stroke-width: 0.8"/>
      </g>
     </g>
     <g id="text_14">
      <!-- 0.53 -->
      <g transform="translate(30.6 121.395326) scale(0.1 -0.1)">
       <defs>
        <path id="SimHei-33" d="M 250 1225 
L 700 1300 
Q 800 975 1025 762 
Q 1250 550 1587 562 
Q 1925 575 2125 837 
Q 2325 1100 2300 1437 
Q 2275 1775 2037 1962 
Q 1800 2150 1275 2225 
L 1275 2550 
Q 1800 2600 2037 2825 
Q 2275 3050 2250 3412 
Q 2225 3775 1925 3937 
Q 1625 4100 1287 3975 
Q 950 3850 750 3275 
L 300 3350 
Q 450 3800 712 4100 
Q 975 4400 1425 4450 
Q 1875 4500 2212 4337 
Q 2550 4175 2687 3837 
Q 2825 3500 2725 3100 
Q 2625 2700 2150 2400 
Q 2500 2250 2687 1950 
Q 2875 1650 2812 1162 
Q 2750 675 2375 375 
Q 2000 75 1525 87 
Q 1050 100 700 387 
Q 350 675 250 1225 
z
" transform="scale(0.015625)"/>
       </defs>
       <use xlink:href="#SimHei-30"/>
       <use xlink:href="#SimHei-2e" x="50"/>
       <use xlink:href="#SimHei-35" x="100"/>
       <use xlink:href="#SimHei-33" x="150"/>
      </g>
     </g>
    </g>
    <g id="ytick_8">
     <g id="line2d_27">
      <path d="M 57.6 86.807333 
L 414.72 86.807333 
" clip-path="url(#p9d71e4fe10)" style="fill: none; stroke: #b0b0b0; stroke-width: 0.8; stroke-linecap: square"/>
     </g>
     <g id="line2d_28">
      <g>
       <use xlink:href="#m4762d62d08" x="57.6" y="86.807333" style="stroke: #000000; stroke-width: 0.8"/>
      </g>
     </g>
     <g id="text_15">
      <!-- 0.54 -->
      <g transform="translate(30.6 90.244833) scale(0.1 -0.1)">
       <use xlink:href="#SimHei-30"/>
       <use xlink:href="#SimHei-2e" x="50"/>
       <use xlink:href="#SimHei-35" x="100"/>
       <use xlink:href="#SimHei-34" x="150"/>
      </g>
     </g>
    </g>
    <g id="ytick_9">
     <g id="line2d_29">
      <path d="M 57.6 55.65684 
L 414.72 55.65684 
" clip-path="url(#p9d71e4fe10)" style="fill: none; stroke: #b0b0b0; stroke-width: 0.8; stroke-linecap: square"/>
     </g>
     <g id="line2d_30">
      <g>
       <use xlink:href="#m4762d62d08" x="57.6" y="55.65684" style="stroke: #000000; stroke-width: 0.8"/>
      </g>
     </g>
     <g id="text_16">
      <!-- 0.55 -->
      <g transform="translate(30.6 59.09434) scale(0.1 -0.1)">
       <use xlink:href="#SimHei-30"/>
       <use xlink:href="#SimHei-2e" x="50"/>
       <use xlink:href="#SimHei-35" x="100"/>
       <use xlink:href="#SimHei-35" x="150"/>
      </g>
     </g>
    </g>
    <g id="text_17">
     <!-- 服药后1h后血糖（mmol/L） -->
     <g transform="translate(25.35 234.528) rotate(-90) scale(0.1 -0.1)">
      <defs>
       <path id="SimHei-670d" d="M 3700 -575 
L 3225 -575 
Q 3250 25 3250 550 
L 3250 4025 
Q 3250 4450 3225 4950 
L 5550 4950 
Q 5525 4600 5500 4187 
Q 5475 3775 5425 3562 
Q 5375 3350 5125 3250 
Q 4875 3150 4475 3100 
Q 4400 3400 4250 3600 
Q 4875 3600 4950 3737 
Q 5025 3875 5025 4525 
L 3700 4525 
L 3700 2850 
L 5775 2850 
Q 5675 2200 5525 1687 
Q 5375 1175 5125 675 
Q 5550 175 6100 -75 
Q 5925 -225 5750 -500 
Q 5275 -175 4850 300 
Q 4550 -125 4025 -600 
Q 3900 -375 3750 -200 
Q 4100 50 4525 650 
Q 4200 1075 3875 2425 
L 3700 2425 
L 3700 -575 
z
M 2675 4925 
Q 2650 4725 2650 4000 
L 2650 300 
Q 2650 -225 2425 -337 
Q 2200 -450 1800 -550 
Q 1700 -175 1550 50 
Q 1900 50 2050 75 
Q 2200 100 2200 450 
L 2200 1700 
L 1225 1700 
Q 1175 1075 1050 550 
Q 925 25 700 -475 
Q 500 -300 225 -175 
Q 525 375 637 862 
Q 750 1350 787 1850 
Q 825 2350 825 3425 
Q 825 4500 800 4925 
L 2675 4925 
z
M 2200 2125 
L 2200 3125 
L 1275 3125 
L 1250 2125 
L 2200 2125 
z
M 2200 3550 
L 2200 4500 
L 1275 4500 
L 1275 3550 
L 2200 3550 
z
M 4325 2425 
Q 4525 1475 4800 1050 
Q 5100 1625 5225 2425 
L 4325 2425 
z
" transform="scale(0.015625)"/>
       <path id="SimHei-836f" d="M 4425 3450 
Q 4225 3225 4100 2950 
L 5825 2950 
Q 5800 2500 5775 1975 
L 5725 125 
Q 5700 -225 5450 -350 
Q 5200 -475 4575 -575 
Q 4500 -300 4300 -50 
Q 4975 -50 5100 12 
Q 5225 75 5275 325 
L 5350 2500 
L 3900 2500 
Q 3600 1950 3250 1500 
Q 3100 1700 2775 1850 
Q 3125 2150 3437 2725 
Q 3750 3300 3825 3625 
Q 4075 3525 4425 3450 
z
M 2675 5150 
Q 2625 4900 2625 4525 
L 3875 4525 
Q 3875 4900 3850 5175 
L 4350 5175 
Q 4325 4900 4325 4525 
L 5200 4525 
Q 5675 4525 6125 4550 
L 6125 4075 
Q 5675 4100 5200 4100 
L 4325 4100 
Q 4325 3925 4350 3675 
L 3875 3675 
L 3875 4100 
L 2625 4100 
L 2625 3550 
L 2125 3550 
Q 2150 3850 2150 4100 
L 1175 4100 
Q 750 4100 300 4075 
L 300 4550 
Q 725 4525 1175 4525 
L 2150 4525 
Q 2150 4900 2125 5150 
L 2675 5150 
z
M 2175 3400 
Q 1950 3250 1775 2962 
Q 1600 2675 1275 2250 
L 2000 2250 
Q 2275 2650 2400 2975 
Q 2625 2825 2975 2725 
Q 2700 2550 2362 2050 
Q 2025 1550 1675 1150 
Q 2000 1200 2900 1300 
Q 2825 1100 2800 900 
Q 2475 875 1887 787 
Q 1300 700 1025 575 
Q 925 800 750 1050 
Q 1025 1075 1262 1287 
Q 1500 1500 1800 1925 
Q 1625 1925 1300 1887 
Q 975 1850 775 1750 
Q 675 2025 525 2225 
Q 825 2300 1112 2712 
Q 1400 3125 1625 3650 
Q 1850 3500 2175 3400 
z
M 3025 450 
Q 3000 175 3000 0 
Q 2325 -125 1737 -262 
Q 1150 -400 875 -525 
Q 800 -250 600 25 
Q 1100 75 1737 187 
Q 2375 300 3025 450 
z
M 4075 1775 
Q 4400 1325 4675 800 
Q 4450 700 4225 550 
Q 3975 1100 3650 1525 
Q 3875 1600 4075 1775 
z
" transform="scale(0.015625)"/>
       <path id="SimHei-540e" d="M 5475 2150 
Q 5450 1750 5450 775 
Q 5450 -175 5500 -550 
L 4975 -550 
L 4975 -25 
L 2525 -25 
L 2525 -600 
L 2025 -600 
Q 2050 -175 2050 775 
Q 2050 1750 2025 2150 
L 5475 2150 
z
M 5175 5075 
Q 5300 4800 5525 4525 
Q 4950 4475 3750 4337 
Q 2550 4200 1575 4175 
L 1575 3375 
L 5200 3375 
Q 5550 3375 5975 3400 
L 5975 2900 
Q 5575 2925 5200 2925 
L 1575 2925 
Q 1550 2425 1487 1875 
Q 1425 1325 1250 712 
Q 1075 100 800 -325 
Q 650 -200 225 -50 
Q 625 325 825 1062 
Q 1025 1800 1050 2825 
Q 1075 3850 1075 4575 
Q 2300 4600 3625 4775 
Q 4950 4950 5175 5075 
z
M 4975 375 
L 4975 1725 
L 2525 1725 
L 2525 375 
L 4975 375 
z
" transform="scale(0.015625)"/>
       <path id="SimHei-68" d="M 2800 125 
L 2300 125 
L 2300 1925 
Q 2300 2225 2150 2400 
Q 2000 2575 1750 2575 
Q 1425 2575 1137 2237 
Q 850 1900 850 1400 
L 850 125 
L 350 125 
L 350 4400 
L 850 4400 
L 850 2400 
Q 1050 2675 1287 2825 
Q 1525 2975 1900 2975 
Q 2350 2975 2575 2725 
Q 2800 2475 2800 2100 
L 2800 125 
z
" transform="scale(0.015625)"/>
       <path id="SimHei-8840" d="M 3125 4875 
Q 3000 4700 2925 4525 
Q 2850 4350 2775 4025 
L 5400 4025 
Q 5375 3525 5375 2750 
L 5375 175 
Q 5725 175 6175 200 
L 6175 -275 
Q 5675 -250 5200 -250 
L 1050 -250 
Q 650 -250 250 -275 
L 250 200 
Q 600 175 975 175 
L 975 2750 
Q 975 3500 950 4025 
L 2300 4025 
Q 2450 4775 2450 5025 
Q 2775 4925 3125 4875 
z
M 2350 175 
L 2350 3600 
L 1450 3600 
L 1450 175 
L 2350 175 
z
M 4900 175 
L 4900 3600 
L 4050 3600 
L 4050 175 
L 4900 175 
z
M 3600 175 
L 3600 3600 
L 2800 3600 
L 2800 175 
L 3600 175 
z
" transform="scale(0.015625)"/>
       <path id="SimHei-7cd6" d="M 4525 5275 
Q 4625 4975 4725 4625 
Q 5675 4625 6075 4650 
L 6075 4225 
Q 5675 4250 4675 4250 
L 3200 4250 
L 3200 2975 
L 4250 2975 
L 4250 3375 
Q 3800 3375 3500 3350 
L 3500 3800 
Q 3800 3775 4250 3775 
L 4250 4100 
L 4675 4100 
L 4675 3775 
L 5725 3775 
Q 5700 3425 5700 2975 
Q 5875 2975 6125 3000 
L 6125 2550 
Q 5875 2575 5700 2575 
Q 5700 2075 5725 1725 
L 4675 1725 
L 4675 1375 
L 4250 1375 
L 4250 1725 
Q 3825 1725 3500 1700 
L 3500 2150 
Q 3825 2125 4250 2125 
L 4250 2575 
L 3200 2575 
Q 3200 1600 3012 875 
Q 2825 150 2225 -625 
Q 2050 -425 1775 -325 
Q 2275 275 2500 862 
Q 2725 1450 2750 2162 
Q 2775 2875 2775 3450 
Q 2775 4050 2750 4625 
L 4200 4625 
Q 4125 4875 3975 5125 
Q 4275 5175 4525 5275 
z
M 1250 4425 
Q 1250 4975 1225 5225 
L 1725 5225 
Q 1700 4875 1700 4425 
L 1700 3125 
Q 2075 3125 2500 3150 
L 2500 2700 
Q 2075 2725 1700 2725 
L 1700 300 
Q 1700 -100 1725 -625 
L 1225 -625 
Q 1250 -100 1250 300 
L 1250 1675 
Q 1025 1125 550 375 
Q 425 625 200 825 
Q 475 1150 762 1712 
Q 1050 2275 1150 2725 
Q 725 2725 300 2700 
L 300 3150 
Q 750 3125 1250 3125 
L 1250 4425 
z
M 5750 1250 
Q 5725 775 5725 350 
Q 5725 -75 5750 -475 
L 5275 -475 
L 5275 -200 
L 3825 -200 
L 3825 -575 
L 3375 -575 
Q 3400 -175 3400 300 
Q 3400 775 3375 1250 
L 5750 1250 
z
M 5275 200 
L 5275 850 
L 3825 850 
L 3825 200 
L 5275 200 
z
M 2650 4525 
Q 2575 4375 2500 4100 
Q 2425 3825 2250 3375 
Q 2050 3450 1825 3500 
Q 2025 4100 2125 4675 
Q 2450 4575 2650 4525 
z
M 675 4625 
Q 900 4075 1025 3575 
Q 850 3500 600 3400 
Q 450 4050 275 4475 
Q 500 4525 675 4625 
z
M 2575 1475 
Q 2275 1350 2100 1250 
Q 1975 1650 1750 2150 
Q 1975 2225 2150 2325 
L 2575 1475 
z
M 5250 2125 
L 5250 2575 
L 4675 2575 
L 4675 2125 
L 5250 2125 
z
M 5250 2975 
L 5250 3375 
L 4675 3375 
L 4675 2975 
L 5250 2975 
z
" transform="scale(0.015625)"/>
       <path id="SimHei-6d" d="M 3050 125 
L 2550 125 
L 2550 2150 
Q 2550 2300 2500 2400 
Q 2450 2500 2300 2500 
Q 2125 2500 1975 2312 
Q 1825 2125 1825 1825 
L 1825 125 
L 1325 125 
L 1325 2150 
Q 1325 2300 1275 2400 
Q 1225 2500 1075 2500 
Q 900 2500 750 2312 
Q 600 2125 600 1825 
L 600 125 
L 100 125 
L 100 2925 
L 600 2925 
L 600 2550 
Q 725 2750 900 2862 
Q 1075 2975 1275 2975 
Q 1475 2975 1612 2862 
Q 1750 2750 1800 2550 
Q 1925 2750 2087 2862 
Q 2250 2975 2450 2975 
Q 2750 2975 2900 2812 
Q 3050 2650 3050 2350 
L 3050 125 
z
" transform="scale(0.015625)"/>
       <path id="SimHei-6f" d="M 2925 1525 
Q 2925 875 2525 475 
Q 2125 75 1575 75 
Q 1025 75 625 475 
Q 225 875 225 1525 
Q 225 2175 625 2575 
Q 1025 2975 1575 2975 
Q 2125 2975 2525 2575 
Q 2925 2175 2925 1525 
z
M 2375 1525 
Q 2375 2025 2125 2275 
Q 1875 2525 1575 2525 
Q 1275 2525 1025 2275 
Q 775 2025 775 1525 
Q 775 1025 1025 775 
Q 1275 525 1575 525 
Q 1875 525 2125 775 
Q 2375 1025 2375 1525 
z
" transform="scale(0.015625)"/>
       <path id="SimHei-6c" d="M 1825 125 
L 1325 125 
L 1325 4400 
L 1825 4400 
L 1825 125 
z
" transform="scale(0.015625)"/>
       <path id="SimHei-4c" d="M 2900 125 
L 300 125 
L 300 4400 
L 875 4400 
L 875 600 
L 2900 600 
L 2900 125 
z
" transform="scale(0.015625)"/>
      </defs>
      <use xlink:href="#SimHei-670d"/>
      <use xlink:href="#SimHei-836f" x="100"/>
      <use xlink:href="#SimHei-540e" x="200"/>
      <use xlink:href="#SimHei-31" x="300"/>
      <use xlink:href="#SimHei-68" x="350"/>
      <use xlink:href="#SimHei-540e" x="400"/>
      <use xlink:href="#SimHei-8840" x="500"/>
      <use xlink:href="#SimHei-7cd6" x="600"/>
      <use xlink:href="#SimHei-ff08" x="700"/>
      <use xlink:href="#SimHei-6d" x="800"/>
      <use xlink:href="#SimHei-6d" x="850"/>
      <use xlink:href="#SimHei-6f" x="900"/>
      <use xlink:href="#SimHei-6c" x="950"/>
      <use xlink:href="#SimHei-2f" x="1000"/>
      <use xlink:href="#SimHei-4c" x="1050"/>
      <use xlink:href="#SimHei-ff09" x="1100"/>
     </g>
    </g>
   </g>
   <g id="line2d_31">
    <path d="M 73.832727 78.914189 
L 80.45833 65.219438 
L 87.083933 56.865524 
L 93.709536 53.568 
L 100.335139 54.826109 
L 106.960742 59.997429 
L 113.586345 68.36991 
L 120.211948 79.21869 
L 126.837551 91.853444 
L 133.463154 105.647529 
L 140.088757 120.058044 
L 146.71436 134.632321 
L 153.339963 149.009601 
L 159.965566 162.913418 
L 166.591169 176.144362 
L 173.216772 188.568564 
L 179.842375 200.105629 
L 186.467978 210.719163 
L 193.093581 220.405919 
L 199.719184 229.18632 
L 206.344787 237.099078 
L 212.97039 244.194975 
L 219.595993 250.530547 
L 226.221596 256.16651 
L 232.847199 261.163763 
L 239.472801 265.582278 
L 246.098404 269.480171 
L 252.724007 272.910914 
L 259.34961 275.924732 
L 265.975213 278.568786 
L 272.600816 280.884851 
L 279.226419 282.911083 
L 285.852022 284.681646 
L 292.477625 286.22736 
L 299.103228 287.575892 
L 305.728831 288.751377 
L 312.354434 289.775355 
L 318.980037 290.666763 
L 325.60564 291.442406 
L 332.231243 292.117136 
L 338.856846 292.703486 
L 345.482449 293.21334 
L 352.108052 293.656073 
L 358.733655 294.040784 
L 365.359258 294.374529 
L 371.984861 294.66464 
L 378.610464 294.916132 
L 385.236067 295.134482 
L 391.86167 295.323959 
L 398.487273 295.488 
" clip-path="url(#p9d71e4fe10)" style="fill: none; stroke: #1f77b4; stroke-width: 1.5; stroke-linecap: square"/>
    <defs>
     <path id="m320db9a69d" d="M 0 3 
C 0.795609 3 1.55874 2.683901 2.12132 2.12132 
C 2.683901 1.55874 3 0.795609 3 0 
C 3 -0.795609 2.683901 -1.55874 2.12132 -2.12132 
C 1.55874 -2.683901 0.795609 -3 0 -3 
C -0.795609 -3 -1.55874 -2.683901 -2.12132 -2.12132 
C -2.683901 -1.55874 -3 -0.795609 -3 0 
C -3 0.795609 -2.683901 1.55874 -2.12132 2.12132 
C -1.55874 2.683901 -0.795609 3 0 3 
z
" style="stroke: #1f77b4"/>
    </defs>
    <g clip-path="url(#p9d71e4fe10)">
     <use xlink:href="#m320db9a69d" x="73.832727" y="78.914189" style="fill: #1f77b4; stroke: #1f77b4"/>
     <use xlink:href="#m320db9a69d" x="80.45833" y="65.219438" style="fill: #1f77b4; stroke: #1f77b4"/>
     <use xlink:href="#m320db9a69d" x="87.083933" y="56.865524" style="fill: #1f77b4; stroke: #1f77b4"/>
     <use xlink:href="#m320db9a69d" x="93.709536" y="53.568" style="fill: #1f77b4; stroke: #1f77b4"/>
     <use xlink:href="#m320db9a69d" x="100.335139" y="54.826109" style="fill: #1f77b4; stroke: #1f77b4"/>
     <use xlink:href="#m320db9a69d" x="106.960742" y="59.997429" style="fill: #1f77b4; stroke: #1f77b4"/>
     <use xlink:href="#m320db9a69d" x="113.586345" y="68.36991" style="fill: #1f77b4; stroke: #1f77b4"/>
     <use xlink:href="#m320db9a69d" x="120.211948" y="79.21869" style="fill: #1f77b4; stroke: #1f77b4"/>
     <use xlink:href="#m320db9a69d" x="126.837551" y="91.853444" style="fill: #1f77b4; stroke: #1f77b4"/>
     <use xlink:href="#m320db9a69d" x="133.463154" y="105.647529" style="fill: #1f77b4; stroke: #1f77b4"/>
     <use xlink:href="#m320db9a69d" x="140.088757" y="120.058044" style="fill: #1f77b4; stroke: #1f77b4"/>
     <use xlink:href="#m320db9a69d" x="146.71436" y="134.632321" style="fill: #1f77b4; stroke: #1f77b4"/>
     <use xlink:href="#m320db9a69d" x="153.339963" y="149.009601" style="fill: #1f77b4; stroke: #1f77b4"/>
     <use xlink:href="#m320db9a69d" x="159.965566" y="162.913418" style="fill: #1f77b4; stroke: #1f77b4"/>
     <use xlink:href="#m320db9a69d" x="166.591169" y="176.144362" style="fill: #1f77b4; stroke: #1f77b4"/>
     <use xlink:href="#m320db9a69d" x="173.216772" y="188.568564" style="fill: #1f77b4; stroke: #1f77b4"/>
     <use xlink:href="#m320db9a69d" x="179.842375" y="200.105629" style="fill: #1f77b4; stroke: #1f77b4"/>
     <use xlink:href="#m320db9a69d" x="186.467978" y="210.719163" style="fill: #1f77b4; stroke: #1f77b4"/>
     <use xlink:href="#m320db9a69d" x="193.093581" y="220.405919" style="fill: #1f77b4; stroke: #1f77b4"/>
     <use xlink:href="#m320db9a69d" x="199.719184" y="229.18632" style="fill: #1f77b4; stroke: #1f77b4"/>
     <use xlink:href="#m320db9a69d" x="206.344787" y="237.099078" style="fill: #1f77b4; stroke: #1f77b4"/>
     <use xlink:href="#m320db9a69d" x="212.97039" y="244.194975" style="fill: #1f77b4; stroke: #1f77b4"/>
     <use xlink:href="#m320db9a69d" x="219.595993" y="250.530547" style="fill: #1f77b4; stroke: #1f77b4"/>
     <use xlink:href="#m320db9a69d" x="226.221596" y="256.16651" style="fill: #1f77b4; stroke: #1f77b4"/>
     <use xlink:href="#m320db9a69d" x="232.847199" y="261.163763" style="fill: #1f77b4; stroke: #1f77b4"/>
     <use xlink:href="#m320db9a69d" x="239.472801" y="265.582278" style="fill: #1f77b4; stroke: #1f77b4"/>
     <use xlink:href="#m320db9a69d" x="246.098404" y="269.480171" style="fill: #1f77b4; stroke: #1f77b4"/>
     <use xlink:href="#m320db9a69d" x="252.724007" y="272.910914" style="fill: #1f77b4; stroke: #1f77b4"/>
     <use xlink:href="#m320db9a69d" x="259.34961" y="275.924732" style="fill: #1f77b4; stroke: #1f77b4"/>
     <use xlink:href="#m320db9a69d" x="265.975213" y="278.568786" style="fill: #1f77b4; stroke: #1f77b4"/>
     <use xlink:href="#m320db9a69d" x="272.600816" y="280.884851" style="fill: #1f77b4; stroke: #1f77b4"/>
     <use xlink:href="#m320db9a69d" x="279.226419" y="282.911083" style="fill: #1f77b4; stroke: #1f77b4"/>
     <use xlink:href="#m320db9a69d" x="285.852022" y="284.681646" style="fill: #1f77b4; stroke: #1f77b4"/>
     <use xlink:href="#m320db9a69d" x="292.477625" y="286.22736" style="fill: #1f77b4; stroke: #1f77b4"/>
     <use xlink:href="#m320db9a69d" x="299.103228" y="287.575892" style="fill: #1f77b4; stroke: #1f77b4"/>
     <use xlink:href="#m320db9a69d" x="305.728831" y="288.751377" style="fill: #1f77b4; stroke: #1f77b4"/>
     <use xlink:href="#m320db9a69d" x="312.354434" y="289.775355" style="fill: #1f77b4; stroke: #1f77b4"/>
     <use xlink:href="#m320db9a69d" x="318.980037" y="290.666763" style="fill: #1f77b4; stroke: #1f77b4"/>
     <use xlink:href="#m320db9a69d" x="325.60564" y="291.442406" style="fill: #1f77b4; stroke: #1f77b4"/>
     <use xlink:href="#m320db9a69d" x="332.231243" y="292.117136" style="fill: #1f77b4; stroke: #1f77b4"/>
     <use xlink:href="#m320db9a69d" x="338.856846" y="292.703486" style="fill: #1f77b4; stroke: #1f77b4"/>
     <use xlink:href="#m320db9a69d" x="345.482449" y="293.21334" style="fill: #1f77b4; stroke: #1f77b4"/>
     <use xlink:href="#m320db9a69d" x="352.108052" y="293.656073" style="fill: #1f77b4; stroke: #1f77b4"/>
     <use xlink:href="#m320db9a69d" x="358.733655" y="294.040784" style="fill: #1f77b4; stroke: #1f77b4"/>
     <use xlink:href="#m320db9a69d" x="365.359258" y="294.374529" style="fill: #1f77b4; stroke: #1f77b4"/>
     <use xlink:href="#m320db9a69d" x="371.984861" y="294.66464" style="fill: #1f77b4; stroke: #1f77b4"/>
     <use xlink:href="#m320db9a69d" x="378.610464" y="294.916132" style="fill: #1f77b4; stroke: #1f77b4"/>
     <use xlink:href="#m320db9a69d" x="385.236067" y="295.134482" style="fill: #1f77b4; stroke: #1f77b4"/>
     <use xlink:href="#m320db9a69d" x="391.86167" y="295.323959" style="fill: #1f77b4; stroke: #1f77b4"/>
     <use xlink:href="#m320db9a69d" x="398.487273" y="295.488" style="fill: #1f77b4; stroke: #1f77b4"/>
    </g>
   </g>
   <g id="patch_3">
    <path d="M 57.6 307.584 
L 57.6 41.472 
" style="fill: none; stroke: #000000; stroke-width: 0.8; stroke-linejoin: miter; stroke-linecap: square"/>
   </g>
   <g id="patch_4">
    <path d="M 414.72 307.584 
L 414.72 41.472 
" style="fill: none; stroke: #000000; stroke-width: 0.8; stroke-linejoin: miter; stroke-linecap: square"/>
   </g>
   <g id="patch_5">
    <path d="M 57.6 307.584 
L 414.72 307.584 
" style="fill: none; stroke: #000000; stroke-width: 0.8; stroke-linejoin: miter; stroke-linecap: square"/>
   </g>
   <g id="patch_6">
    <path d="M 57.6 41.472 
L 414.72 41.472 
" style="fill: none; stroke: #000000; stroke-width: 0.8; stroke-linejoin: miter; stroke-linecap: square"/>
   </g>
   <g id="text_18">
    <!-- 药物摄入和血糖的关系 -->
    <g transform="translate(176.16 35.472) scale(0.12 -0.12)">
     <defs>
      <path id="SimHei-7269" d="M 5550 3775 
L 5225 3775 
Q 5175 2925 5062 2312 
Q 4950 1700 4700 1225 
Q 4450 750 4087 337 
Q 3725 -75 3100 -475 
Q 2950 -250 2650 -75 
Q 3275 175 3662 575 
Q 4050 975 4275 1462 
Q 4500 1950 4600 2537 
Q 4700 3125 4750 3775 
L 4325 3775 
Q 4250 3025 3912 2275 
Q 3575 1525 3075 1025 
Q 2925 1250 2600 1350 
Q 3175 1825 3462 2400 
Q 3750 2975 3875 3775 
L 3500 3775 
Q 3175 3125 2950 2800 
Q 2750 2975 2500 3050 
Q 3025 3750 3275 4375 
Q 3525 5000 3575 5275 
Q 3925 5125 4200 5050 
Q 4075 4950 3962 4725 
Q 3850 4500 3725 4200 
L 6075 4200 
Q 5975 3100 5937 1850 
Q 5900 600 5862 225 
Q 5825 -150 5500 -287 
Q 5175 -425 4550 -500 
Q 4525 -225 4300 75 
Q 5025 25 5187 100 
Q 5350 175 5375 525 
L 5550 3775 
z
M 1250 4325 
Q 1100 4125 1025 3700 
L 1600 3700 
L 1600 4525 
Q 1600 4900 1550 5200 
L 2100 5200 
Q 2075 4900 2075 4525 
L 2075 3700 
Q 2325 3700 2650 3725 
L 2650 3275 
Q 2300 3300 2075 3300 
L 2075 2000 
Q 2500 2100 2775 2225 
Q 2775 2000 2800 1775 
Q 2475 1675 2075 1550 
L 2075 375 
Q 2075 -50 2100 -600 
L 1550 -600 
Q 1600 -100 1600 375 
L 1600 1425 
Q 1325 1350 1062 1262 
Q 800 1175 500 1025 
Q 425 1250 250 1575 
Q 700 1625 1600 1850 
L 1600 3300 
L 950 3300 
Q 850 2825 725 2375 
Q 475 2500 225 2500 
Q 450 3025 537 3512 
Q 625 4000 650 4425 
Q 925 4350 1250 4325 
z
" transform="scale(0.015625)"/>
      <path id="SimHei-548c" d="M 5875 4200 
Q 5850 3700 5850 3275 
L 5850 700 
Q 5850 250 5875 -25 
L 5375 -25 
L 5375 575 
L 4175 575 
L 4175 -75 
L 3700 -75 
Q 3725 500 3725 625 
L 3725 3275 
Q 3725 3700 3700 4200 
L 5875 4200 
z
M 3275 4450 
Q 3050 4450 2250 4325 
L 2250 3200 
L 2625 3200 
Q 3000 3200 3425 3225 
L 3425 2775 
Q 3000 2800 2650 2800 
L 2250 2800 
L 2250 225 
Q 2250 -200 2275 -550 
L 1775 -550 
Q 1800 -150 1800 225 
L 1800 1850 
Q 1425 1150 675 250 
Q 550 425 275 600 
Q 825 1125 1237 1812 
Q 1650 2500 1700 2800 
L 1250 2800 
Q 700 2800 450 2775 
L 450 3225 
Q 725 3200 1250 3200 
L 1800 3200 
L 1800 4250 
Q 1475 4200 775 4125 
Q 725 4375 625 4575 
Q 1100 4600 1825 4700 
Q 2550 4800 3050 5000 
Q 3100 4725 3275 4450 
z
M 5375 975 
L 5375 3775 
L 4175 3775 
L 4175 975 
L 5375 975 
z
M 3075 1000 
Q 2750 1625 2325 2100 
Q 2475 2200 2700 2400 
Q 3175 1875 3500 1325 
Q 3250 1175 3075 1000 
z
" transform="scale(0.015625)"/>
      <path id="SimHei-7684" d="M 2100 4975 
Q 1975 4750 1750 3950 
L 2875 3950 
Q 2850 3525 2850 2875 
L 2850 675 
Q 2850 300 2875 -400 
L 2375 -400 
L 2375 100 
L 1100 100 
L 1100 -450 
L 600 -450 
Q 625 350 625 550 
L 625 2850 
Q 625 3525 600 3950 
L 1325 3950 
Q 1450 4525 1525 5150 
Q 1875 5025 2100 4975 
z
M 5825 3075 
Q 5800 1550 5700 175 
Q 5650 -275 5225 -425 
Q 4800 -575 4275 -625 
Q 4250 -350 4050 -50 
Q 4550 -75 4837 -25 
Q 5125 25 5200 200 
Q 5275 375 5312 1225 
Q 5350 2075 5375 3600 
L 3925 3600 
Q 3725 3125 3350 2475 
Q 3175 2650 2925 2750 
Q 3150 3050 3350 3475 
Q 3550 3900 3700 4400 
Q 3850 4900 3875 5175 
Q 4225 5025 4475 4950 
Q 4350 4750 4262 4512 
Q 4175 4275 4075 4050 
L 5850 4050 
Q 5825 3525 5825 3075 
z
M 2375 525 
L 2375 1850 
L 1100 1850 
L 1100 525 
L 2375 525 
z
M 2375 2275 
L 2375 3525 
L 1100 3525 
L 1100 2275 
L 2375 2275 
z
M 4350 2050 
Q 4500 1750 4700 1275 
Q 4525 1200 4225 1025 
Q 4050 1500 3900 1837 
Q 3750 2175 3600 2400 
Q 3775 2500 4050 2650 
L 4350 2050 
z
" transform="scale(0.015625)"/>
      <path id="SimHei-5173" d="M 4675 4850 
Q 4525 4675 4362 4375 
Q 4200 4075 4075 3825 
L 4625 3825 
Q 5150 3825 5550 3850 
L 5550 3375 
Q 5225 3400 4700 3400 
L 3400 3400 
L 3400 2150 
L 4975 2150 
Q 5475 2150 5875 2175 
L 5875 1700 
Q 5475 1725 5025 1725 
L 3500 1725 
Q 4250 450 6000 75 
Q 5775 -175 5600 -525 
Q 4025 0 3225 1300 
Q 2800 200 875 -600 
Q 775 -350 500 -150 
Q 2425 375 2875 1725 
L 1550 1725 
Q 975 1725 600 1700 
L 600 2150 
Q 875 2125 1450 2125 
L 2925 2125 
L 2925 3400 
L 1750 3400 
Q 1275 3400 900 3375 
L 900 3850 
Q 1275 3825 1775 3825 
L 3575 3825 
Q 3925 4625 4075 5150 
Q 4325 5000 4675 4850 
z
M 2125 5125 
Q 2450 4725 2800 4175 
Q 2500 4025 2325 3875 
Q 2025 4450 1725 4825 
Q 1950 4975 2125 5125 
z
" transform="scale(0.015625)"/>
      <path id="SimHei-7cfb" d="M 5300 5200 
Q 5450 4950 5725 4675 
Q 4975 4650 4437 4587 
Q 3900 4525 3125 4450 
Q 3250 4325 3475 4225 
Q 3150 4025 2837 3762 
Q 2525 3500 2225 3275 
L 3475 3275 
Q 4100 3700 4525 4050 
Q 4775 3850 5125 3700 
Q 4775 3550 4450 3375 
Q 4125 3200 3387 2737 
Q 2650 2275 2125 1975 
Q 3600 2050 4875 2100 
Q 4750 2225 4225 2625 
Q 4475 2725 4650 2875 
Q 4950 2650 5337 2312 
Q 5725 1975 6075 1650 
Q 5775 1475 5600 1325 
Q 5400 1575 5225 1725 
Q 4550 1700 3625 1650 
L 3625 150 
Q 3625 -325 3387 -412 
Q 3150 -500 2525 -600 
Q 2475 -300 2300 -25 
Q 2875 -25 3012 12 
Q 3150 50 3150 300 
L 3150 1650 
Q 1625 1625 1075 1525 
Q 1000 1775 900 2050 
Q 1450 2100 1875 2300 
Q 2300 2500 2900 2900 
Q 2325 2900 2037 2875 
Q 1750 2850 1400 2800 
Q 1325 3075 1250 3325 
Q 1675 3325 2100 3662 
Q 2525 4000 2750 4400 
Q 1350 4350 925 4300 
Q 850 4550 750 4750 
Q 2150 4750 3250 4850 
Q 4350 4950 5300 5200 
z
M 4625 1250 
Q 4925 1025 5325 737 
Q 5725 450 6000 175 
Q 5800 0 5600 -225 
Q 5275 125 4925 400 
Q 4575 675 4275 875 
Q 4500 1050 4625 1250 
z
M 2200 875 
Q 1900 725 1537 375 
Q 1175 25 800 -300 
Q 575 -75 375 25 
Q 1075 450 1675 1225 
Q 1900 1050 2200 875 
z
" transform="scale(0.015625)"/>
     </defs>
     <use xlink:href="#SimHei-836f"/>
     <use xlink:href="#SimHei-7269" x="100"/>
     <use xlink:href="#SimHei-6444" x="200"/>
     <use xlink:href="#SimHei-5165" x="300"/>
     <use xlink:href="#SimHei-548c" x="400"/>
     <use xlink:href="#SimHei-8840" x="500"/>
     <use xlink:href="#SimHei-7cd6" x="600"/>
     <use xlink:href="#SimHei-7684" x="700"/>
     <use xlink:href="#SimHei-5173" x="800"/>
     <use xlink:href="#SimHei-7cfb" x="900"/>
    </g>
   </g>
  </g>
 </g>
 <defs>
  <clipPath id="p9d71e4fe10">
   <rect x="57.6" y="41.472" width="357.12" height="266.112"/>
  </clipPath>
 </defs>
</svg>
